# xmcd
#
# Track frame offsets: 
#        150
#        36367
#        57760
#        77649
#        98729
#        126623
#        155772
#        174685
#        213704
#        246930
#        281431
#        296544
#        326537
#
# Disc length: 4600 seconds
#
# Revision: 0
# Processed by: cddbd v1.5.2PL0 Copyright (c) Steve Scherf et al.
# Submitted via: ExactAudioCopy v0.99pb4
#
DISCID=c511f60d
DTITLE=Various Artist - Eivissa
DYEAR=2008
DGENRE=Electronic
TTITLE0=Lenny Ibizarre - Utopia
TTITLE1=Elea - Silver Castles
TTITLE2=Elea - Paysage De Soie
TTITLE3=Paco Fernandez - Arena Blanca
TTITLE4=Bliss - Wish U Were Here
TTITLE5=Isaak Hypnotizer - Hidden Constellation
TTITLE6=Kenneth Bager - The Meeting
TTITLE7=Cell/Elea - Magic Island
TTITLE8=Elea - Lama
TTITLE9=Dave Gahan - Kingdom (Booka Shade Club Mix)
TTITLE10=Ana Losada/Lina Veny - No Cuento En Tu Corazon
TTITLE11=Loo Reed - Coney Island Baby
TTITLE12=Brian Eno - Final Sunset
EXTD=
EXTT0=
EXTT1=
EXTT2=
EXTT3=
EXTT4=
EXTT5=
EXTT6=
EXTT7=
EXTT8=
EXTT9=
EXTT10=
EXTT11=
EXTT12=
PLAYORDER=
